<svg xmlns="http://www.w3.org/2000/svg" xmlns:xlink="http://www.w3.org/1999/xlink" width="833" height="833" version="1.1" viewBox="0 0 833 833"><title>Artboard Copy</title><desc>Created with Sketch.</desc><g id="Page-1" fill="none" fill-rule="evenodd" stroke="none" stroke-width="1"><g id="Artboard-Copy" fill="#FFF" fill-rule="nonzero"><polygon id="Shape" points="455 787.753 375 787.753 375 394.447 728.815 198 767.649 267.942 455 441.533"/><polygon id="Shape" points="66 269 104.73 199 437.392 383.06 398.662 453.059"/><path id="Shape" d="M43,626.773691 L43,209.890523 L416.18869,1 L789.463493,209.018289 L789.463493,626.124111 L416.189073,832.909898 L43,626.773691 Z M123,579.569823 L416.132583,741.485707 L709.463493,578.986859 L709.463493,256.01971 L416.274803,92.6317472 L123,256.790867 L123,579.569823 Z"/><polyline id="Shape" points="599 695.64 599 522.137 755.362 435 755.362 608.76 599 695.64"/><polyline id="Shape" points="242.727 524.705 89 439 89 610.411 242.727 696.551 242.727 524.705"/><polyline id="Shape" points="421.829 222.853 578.155 135.62 421.896 48 265 135.911 421.829 222.853"/></g></g></svg>