<svg xmlns="http://www.w3.org/2000/svg" xmlns:xlink="http://www.w3.org/1999/xlink" width="210" height="210" version="1.1" viewBox="0 0 210 210"><title>prettier-icon-dark</title><desc>Created with Sketch.</desc><g id="Page-1" fill="none" fill-rule="evenodd" stroke="none" stroke-width="1"><g id="prettier-icon-dark"><g id="Icon-(Dark)"><g id="Group"><rect id="Rectangle" width="20" height="10" x="150" y="40" fill="#56B3B4" rx="5"/><rect id="Rectangle" width="60" height="10" x="0" y="200" fill="#EA5E5E" rx="5"/><rect id="Rectangle" width="40" height="10" x="120" y="120" fill="#BF85BF" rx="5"/><rect id="Rectangle" width="50" height="10" x="60" y="120" fill="#EA5E5E" rx="5"/><rect id="Rectangle" width="50" height="10" x="0" y="120" fill="#56B3B4" rx="5"/><rect id="Rectangle" width="60" height="10" x="0" y="160" fill="#BF85BF" rx="5"/><rect id="Rectangle" width="60" height="10" x="0" y="80" fill="#BF85BF" rx="5"/><rect id="Rectangle" width="110" height="10" x="50" y="20" fill="#F7BA3E" rx="5"/><rect id="Rectangle" width="40" height="10" x="0" y="20" fill="#EA5E5E" rx="5"/><rect id="Rectangle" width="20" height="10" x="40" y="180" fill="#F7BA3E" rx="5"/><rect id="Rectangle" width="20" height="10" x="40" y="60" fill="#56B3B4" rx="5"/><rect id="Rectangle" width="30" height="10" x="0" y="180" fill="#56B3B4" rx="5"/><rect id="Rectangle" width="30" height="10" x="0" y="60" fill="#F7BA3E" rx="5"/><rect id="Rectangle" width="20" height="10" x="130" y="180" fill="#4D616E" opacity=".5" rx="5"/><rect id="Rectangle" width="50" height="10" x="70" y="180" fill="#4D616E" opacity=".5" rx="5"/><rect id="Rectangle" width="50" height="10" x="160" y="180" fill="#4D616E" opacity=".5" rx="5"/><rect id="Rectangle" width="90" height="10" x="80" y="100" fill="#56B3B4" rx="5"/><rect id="Rectangle" width="40" height="10" x="30" y="100" fill="#F7BA3E" rx="5"/><rect id="Rectangle" width="20" height="10" x="0" y="100" fill="#EA5E5E" rx="5"/><rect id="Rectangle" width="50" height="10" x="90" y="40" fill="#BF85BF" rx="5"/><rect id="Rectangle" width="80" height="10" x="0" y="40" fill="#56B3B4" rx="5"/><rect id="Rectangle" width="100" height="10" x="30" y="140" fill="#F7BA3E" rx="5"/><rect id="Rectangle" width="20" height="10" x="0" y="140" fill="#BF85BF" rx="5"/><rect id="Rectangle" width="60" height="10" x="120" y="60" fill="#EA5E5E" rx="5"/><rect id="Rectangle" width="60" height="10" x="120" y="80" fill="#F7BA3E" rx="5"/><rect id="Rectangle" width="130" height="10" x="0" y="0" fill="#56B3B4" rx="5"/><rect id="Rectangle" width="70" height="10" x="140" y="0" fill="#4D616E" opacity=".5" rx="5"/><rect id="Rectangle" width="30" height="10" x="140" y="140" fill="#4D616E" opacity=".5" rx="5"/><rect id="Rectangle" width="30" height="10" x="180" y="140" fill="#4D616E" opacity=".5" rx="5"/><rect id="Rectangle" width="40" height="10" x="170" y="120" fill="#4D616E" opacity=".5" rx="5"/><rect id="Rectangle" width="40" height="10" x="170" y="20" fill="#4D616E" opacity=".5" rx="5"/><rect id="Rectangle" width="30" height="10" x="180" y="100" fill="#4D616E" opacity=".5" rx="5"/><rect id="Rectangle" width="30" height="10" x="180" y="40" fill="#4D616E" opacity=".5" rx="5"/><rect id="Rectangle" width="20" height="10" x="190" y="60" fill="#4D616E" opacity=".5" rx="5"/><rect id="Rectangle" width="20" height="10" x="190" y="80" fill="#4D616E" opacity=".5" rx="5"/><rect id="Rectangle" width="100" height="10" x="110" y="160" fill="#4D616E" opacity=".5" rx="5"/><rect id="Rectangle" width="30" height="10" x="70" y="160" fill="#4D616E" opacity=".5" rx="5"/><rect id="Rectangle" width="60" height="10" x="150" y="200" fill="#4D616E" opacity=".5" rx="5"/><rect id="Rectangle" width="70" height="10" x="70" y="200" fill="#4D616E" opacity=".5" rx="5"/><rect id="Rectangle" width="40" height="10" x="70" y="60" fill="#4D616E" opacity=".5" rx="5"/><rect id="Rectangle" width="40" height="10" x="70" y="80" fill="#4D616E" opacity=".5" rx="5"/></g></g></g></g></svg>